<svg xmlns="http://www.w3.org/2000/svg" width="512" height="512" viewBox="0 0 512 512">
  <defs>
    <linearGradient id="g1" x1="0%" y1="0%" x2="100%" y2="100%">
      <stop offset="0%" stop-color="#6366f1"/>
      <stop offset="100%" stop-color="#8b5cf6"/>
    </linearGradient>
    <radialGradient id="g2" cx="45%" cy="40%" r="50%">
      <stop offset="0%" stop-color="rgba(255,255,255,0.3)"/>
      <stop offset="100%" stop-color="rgba(255,255,255,0.05)"/>
    </radialGradient>
  </defs>
  <rect x="32" y="32" width="448" height="448" rx="90" ry="90" fill="url(#g1)"/>
  <ellipse cx="256" cy="256" rx="160" ry="140" fill="url(#g2)"/>
  <path d="M160 200 Q200 175 240 200 Q280 225 260 260 Q240 295 200 280 Q160 265 170 230 Q180 195 160 200" fill="none" stroke="rgba(255,255,255,0.15)" stroke-width="4"/>
  <path d="M240 190 Q280 170 320 190 Q350 210 340 240 Q330 270 300 260 Q270 250 270 220 Q270 190 240 190" fill="none" stroke="rgba(255,255,255,0.12)" stroke-width="3"/>
  <path d="M190 240 Q230 225 270 240 Q300 255 290 285 Q280 315 250 305 Q220 295 220 265 Q220 235 190 240" fill="none" stroke="rgba(255,255,255,0.1)" stroke-width="2.5"/>
  <circle cx="160" cy="220" r="8" fill="rgba(255,255,255,0.6)"/>
  <circle cx="210" cy="190" r="6" fill="rgba(255,255,255,0.5)"/>
  <circle cx="260" cy="180" r="7" fill="rgba(255,255,255,0.55)"/>
  <circle cx="310" cy="200" r="5" fill="rgba(255,255,255,0.45)"/>
  <circle cx="280" cy="260" r="6.5" fill="rgba(255,255,255,0.5)"/>
  <circle cx="220" cy="280" r="5.5" fill="rgba(255,255,255,0.48)"/>
  <path d="M310 300 Q360 290 370 330 Q380 370 340 380 Q300 390 290 350 Q280 310 310 300" fill="rgba(255,255,255,0.25)"/>
  <path d="M340 320 L340 340 L360 330 Z" fill="rgba(255,255,255,0.25)"/>
  <circle cx="320" cy="330" r="4" fill="rgba(255,255,255,0.6)"/>
  <circle cx="332.5" cy="330" r="4" fill="rgba(255,255,255,0.6)"/>
  <circle cx="345" cy="330" r="4" fill="rgba(255,255,255,0.6)"/>
</svg>